<svg width="24" height="24" viewBox="0 0 24 24" fill="none" xmlns="http://www.w3.org/2000/svg">
<rect width="24" height="24" rx="3" fill="#00203D"/>
<path d="M7.5 4.43187C7.52992 3.84833 6.70331 4.34209 6.79308 4.02788C8.40903 4.2972 10.3467 4.43187 12.606 4.43187C14.5 5.49998 17.2294 4.16254 19.6982 3.62389C19.4438 5.52412 18.4788 6.56401 16.803 6.74356C16.2793 6.81837 15.4713 6.89318 14.379 6.968C14.3491 7.40191 14.1022 9.30214 13.6384 12.6687C13.1746 16.0203 12.9427 18.332 12.9427 19.6038C12.9427 20.8756 13.0474 21.7584 13.2569 22.2521C11.9851 21.9229 11.1172 21.489 10.6534 20.9504C10.1896 20.3968 9.95764 19.716 9.95764 18.908C9.95764 18.1 10.1447 16.3494 10.5187 13.6562C10.9077 10.948 11.1397 8.77097 11.2145 7.1251C12 6.49998 10.1671 4.99998 9.00001 4.99998C8.31174 4.99998 7.5 5.65879 7.5 4.43187Z" fill="white"/>
<path d="M21.254 3.12836C21.0674 2.76956 20.7368 2.49792 20.3349 2.37319C19.933 2.24847 19.4927 2.28087 19.1109 2.46327L14.896 4.48018L6.60798 2.80282L4.76742 4.01498L11.2149 6.90451L7.53379 9.32883L3.32363 8.02401L2.46948 9.09623L6.94416 12.2656L20.572 5.14433C20.9376 4.95311 21.2129 4.63622 21.3401 4.26027C21.4673 3.88433 21.4365 3.47859 21.254 3.12836Z" fill="white"/>
</svg>
