<svg width="207" height="37" viewBox="0 0 207 37" fill="none" xmlns="http://www.w3.org/2000/svg">
<path d="M10.225 19.65L7.825 19.625C7.14167 19.625 6.61667 19.6333 6.25 19.65C5.98333 21.9833 5.85 23.875 5.85 25.325C5.85 26.775 5.9 27.7917 6 28.375C5.46667 28.4083 5.11667 28.425 4.95 28.425C4 28.425 3.31667 28.2583 2.9 27.925C2.48333 27.5917 2.275 27.0083 2.275 26.175C2.275 25.325 2.50833 23.3 2.975 20.1C2.44167 20.2667 2.05 20.4083 1.8 20.525C1.76667 20.1583 1.75 19.8833 1.75 19.7C1.75 18.55 2.275 17.8333 3.325 17.55C3.64167 15.2667 3.83333 13.2917 3.9 11.625C3.05 11.625 2.50833 11.5083 2.275 11.275C2.05833 11.0417 1.95 10.525 1.95 9.725C2.01667 8.975 2.08333 8.48333 2.15 8.25C4.03333 8.5 6.1 8.625 8.35 8.625C10.6 8.625 12.775 8.425 14.875 8.025C14.6417 9.775 13.575 10.825 11.675 11.175C10.6417 11.375 9.16667 11.5083 7.25 11.575C7.23333 11.7917 6.99167 13.7333 6.525 17.4C7.49167 17.4333 8.15 17.45 8.5 17.45C10.0833 17.45 11.2083 17.175 11.875 16.625C11.9083 16.9583 11.925 17.2083 11.925 17.375C11.925 18.8917 11.3583 19.65 10.225 19.65ZM15.1133 27.375C14.9133 27.0417 14.7883 26.725 14.7383 26.425C14.6883 26.1083 14.6633 25.625 14.6633 24.975C14.6633 24.325 14.9383 21.7667 15.4883 17.3C16.0549 12.8333 16.3383 9.76667 16.3383 8.1C16.3383 6.43333 16.2383 5.35 16.0383 4.85C17.2883 5.18333 18.1383 5.69167 18.5883 6.375C19.0549 7.04167 19.2883 7.99167 19.2883 9.225C19.2883 9.95833 19.0466 12.3417 18.5633 16.375C18.0799 20.4083 17.8383 23.6583 17.8383 26.125C17.8383 26.6583 17.8716 27.4083 17.9383 28.375C16.4216 28.3083 15.4799 27.975 15.1133 27.375ZM33.109 15.3C33.109 15.8833 32.859 16.675 32.359 17.675C31.859 18.6583 31.2507 19.75 30.534 20.95C29.8173 22.15 29.1007 23.4333 28.384 24.8C27.6673 26.15 27.059 27.675 26.559 29.375C26.059 31.0917 25.809 32.7667 25.809 34.4C25.809 35.15 25.8673 35.8667 25.984 36.55C24.634 36.3 23.7173 35.925 23.234 35.425C22.7507 34.9417 22.509 34.3667 22.509 33.7C22.509 32.7833 23.1757 30.975 24.509 28.275C24.259 27.2417 23.9507 25.625 23.584 23.425C23.2173 21.2083 22.8423 19.2833 22.459 17.65C22.0923 16.0167 21.6673 14.8 21.184 14C22.1007 13.5667 22.834 13.35 23.384 13.35C23.934 13.35 24.3507 13.475 24.634 13.725C24.9173 13.975 25.1507 14.475 25.334 15.225C25.534 15.9583 25.6757 16.5667 25.759 17.05C25.9923 18.65 26.109 19.5417 26.109 19.725C26.109 19.9083 26.1757 20.6583 26.309 21.975C26.4423 23.275 26.5423 24.1333 26.609 24.55C29.5757 18.8 31.059 14.9583 31.059 13.025C32.4257 13.725 33.109 14.4833 33.109 15.3ZM42.1016 9.975C42.1349 9.325 42.2016 8.825 42.3016 8.475C44.1016 8.775 46.2599 8.925 48.7766 8.925C51.2932 8.925 53.9266 8.625 56.6766 8.025C56.3932 10.1417 55.3182 11.3 53.4516 11.5C52.8682 11.5833 51.9682 11.6667 50.7516 11.75C50.7182 12.2333 50.4432 14.35 49.9266 18.1C49.4099 21.8333 49.1516 24.4083 49.1516 25.825C49.1516 27.2417 49.2682 28.225 49.5016 28.775C48.0849 28.4083 47.1182 27.925 46.6016 27.325C46.0849 26.7083 45.8266 25.95 45.8266 25.05C45.8266 24.15 46.0349 22.2 46.4516 19.2C46.8849 16.1833 47.1432 13.7583 47.2266 11.925C45.8766 11.9917 44.5516 12.025 43.2516 12.025C42.4849 12.025 42.1016 11.3417 42.1016 9.975ZM60.6008 19.875C61.2008 17.7083 61.9174 16.1167 62.7508 15.1C63.6008 14.0667 64.3841 13.55 65.1008 13.55C65.8341 13.55 66.3841 13.825 66.7508 14.375C67.1174 14.9083 67.3008 15.6083 67.3008 16.475C67.3008 17.325 67.0424 18.1083 66.5258 18.825C66.0258 19.5417 65.3341 19.9 64.4508 19.9C64.2174 19.9 63.9424 19.8333 63.6258 19.7C64.1424 19.05 64.4008 18.2667 64.4008 17.35C64.4008 16.8167 64.1841 16.55 63.7508 16.55C63.4341 16.55 63.0924 16.775 62.7258 17.225C62.3591 17.6583 62.0091 18.2667 61.6758 19.05C61.3424 19.8167 61.0591 20.8083 60.8258 22.025C60.6091 23.225 60.5008 24.5083 60.5008 25.875C60.5008 26.0417 60.5424 26.75 60.6258 28C60.0924 28.0333 59.7508 28.05 59.6008 28.05C58.6508 28.05 57.9674 27.8833 57.5508 27.55C57.1341 27.2167 56.9258 26.6667 56.9258 25.9C56.9258 25.5667 57.1008 24.2833 57.4508 22.05C57.8008 19.8167 57.9758 18.0417 57.9758 16.725C57.9758 15.3917 57.8341 14.1667 57.5508 13.05C58.7674 13.4333 59.6174 13.9833 60.1008 14.7C60.5841 15.4 60.8258 16.225 60.8258 17.175C60.8258 18.1083 60.7508 19.0083 60.6008 19.875ZM76.573 13.575C77.073 13.5417 77.423 13.525 77.623 13.525C78.4897 13.525 79.148 13.6833 79.598 14C80.048 14.3167 80.273 14.9 80.273 15.75C80.273 16.0167 80.1147 17.1917 79.798 19.275C79.4814 21.3417 79.323 23.1167 79.323 24.6C79.323 26.0833 79.4814 27.3917 79.798 28.525C78.548 28.125 77.6814 27.5583 77.198 26.825C76.7147 26.0917 76.473 25.1833 76.473 24.1C76.473 23.6833 76.5647 22.7417 76.748 21.275C76.2314 23.175 75.4397 24.775 74.373 26.075C73.323 27.3583 72.3314 28 71.398 28C69.4814 28 68.523 26.6167 68.523 23.85C68.523 22.9333 68.6564 21.6583 68.923 20.025C69.2064 18.375 69.348 17.125 69.348 16.275C69.348 15.425 69.2314 14.5667 68.998 13.7C70.3814 13.7 71.3814 13.8833 71.998 14.25C72.6314 14.6 72.948 15.3083 72.948 16.375C72.948 16.9417 72.773 18.0667 72.423 19.75C72.073 21.4333 71.898 22.7 71.898 23.55C71.898 24.7833 72.2314 25.4 72.898 25.4C73.2314 25.4 73.6147 25.175 74.048 24.725C74.4814 24.2583 74.898 23.65 75.298 22.9C75.698 22.1333 76.0314 21.1833 76.298 20.05C76.5814 18.9 76.723 17.7417 76.723 16.575C76.723 15.3917 76.673 14.3917 76.573 13.575ZM89.0092 15.05C88.5425 15.05 88.1258 15.2083 87.7592 15.525C87.3925 15.825 87.2092 16.2583 87.2092 16.825C87.2092 17.3917 87.4008 17.925 87.7842 18.425C88.1842 18.925 88.6675 19.3667 89.2342 19.75C89.8008 20.1167 90.3675 20.5 90.9342 20.9C91.5175 21.2833 92.0258 21.7667 92.4592 22.35C92.8925 22.9167 93.1342 23.55 93.1842 24.25C93.1842 25.45 92.6675 26.4583 91.6342 27.275C90.6008 28.0917 89.3175 28.5 87.7842 28.5C86.2508 28.5 85.0425 28.1917 84.1592 27.575C83.2925 26.9583 82.8592 26.25 82.8592 25.45C82.8592 24.65 83.1008 24.0083 83.5842 23.525C84.0842 23.025 84.7008 22.775 85.4342 22.775C85.8175 22.775 86.1758 22.8417 86.5092 22.975C85.9758 23.5417 85.7092 24.1417 85.7092 24.775C85.7092 25.4083 85.8842 25.9167 86.2342 26.3C86.5842 26.6833 87.0592 26.875 87.6592 26.875C88.2592 26.875 88.7592 26.725 89.1592 26.425C89.5758 26.1083 89.7842 25.7083 89.7842 25.225C89.7842 24.725 89.6425 24.2833 89.3592 23.9C89.0758 23.5167 88.7175 23.1833 88.2842 22.9C87.8675 22.6 87.4092 22.2667 86.9092 21.9C86.4092 21.5333 85.9425 21.1667 85.5092 20.8C85.0925 20.4167 84.7425 19.9417 84.4592 19.375C84.1758 18.7917 84.0342 18.1583 84.0342 17.475C84.0342 16.2917 84.5175 15.325 85.4842 14.575C86.4675 13.8083 87.6842 13.425 89.1342 13.425C90.6008 13.425 91.6675 13.7083 92.3342 14.275C93.0175 14.8417 93.3592 15.5083 93.3592 16.275C93.3592 17.025 93.1175 17.6667 92.6342 18.2C92.1675 18.7333 91.5592 19 90.8092 19C90.4425 19 90.0258 18.925 89.5592 18.775C89.9258 18.4583 90.2092 18.1 90.4092 17.7C90.6092 17.2833 90.7092 16.875 90.7092 16.475C90.7092 16.075 90.5425 15.7417 90.2092 15.475C89.8758 15.1917 89.4758 15.05 89.0092 15.05ZM101.358 16.25C101.275 16.85 101.1 17.8917 100.833 19.375C100.266 22.525 99.983 24.8583 99.983 26.375C99.983 27.8917 100.1 28.9083 100.333 29.425C99.0497 29.0917 98.1663 28.5833 97.683 27.9C97.1997 27.2 96.958 26.2167 96.958 24.95C96.958 23.8333 97.133 22.3083 97.483 20.375C97.833 18.425 98.058 17.1083 98.158 16.425C97.2913 16.575 96.3663 16.8667 95.383 17.3C95.3497 16.9333 95.333 16.6583 95.333 16.475C95.333 15.5917 95.5997 14.9917 96.133 14.675C96.6663 14.3417 97.433 14.1667 98.433 14.15C98.5497 12.9 98.608 12 98.608 11.45C98.608 10.9 98.5997 10.4417 98.583 10.075C98.583 9.70833 98.583 9.43333 98.583 9.25C99.683 9.36667 100.483 9.7 100.983 10.25C101.483 10.7833 101.733 11.55 101.733 12.55C101.733 12.95 101.691 13.5083 101.608 14.225C103.008 14.1917 104.033 13.9167 104.683 13.4C104.716 13.7333 104.733 13.9833 104.733 14.15C104.733 14.95 104.591 15.5083 104.308 15.825C104.025 16.125 103.55 16.275 102.883 16.275C102.216 16.275 101.708 16.2667 101.358 16.25ZM111.377 21.85C110.577 21.85 109.793 21.7583 109.027 21.575C109.01 21.7417 109.002 22 109.002 22.35C109.002 23.7333 109.26 24.775 109.777 25.475C110.293 26.175 110.91 26.525 111.627 26.525C112.343 26.525 113.027 26.3083 113.677 25.875C114.327 25.4417 114.893 24.8417 115.377 24.075C115.977 24.2083 116.277 24.5167 116.277 25C114.81 27.25 112.918 28.375 110.602 28.375C109.202 28.375 107.977 27.8417 106.927 26.775C105.877 25.6917 105.352 24.1917 105.352 22.275C105.352 20.8417 105.627 19.4833 106.177 18.2C106.727 16.9 107.602 15.8083 108.802 14.925C110.002 14.025 111.327 13.575 112.777 13.575C114.243 13.575 115.318 13.9083 116.002 14.575C116.685 15.2417 117.027 16.1167 117.027 17.2C117.027 18.7667 116.477 19.9333 115.377 20.7C114.293 21.4667 112.96 21.85 111.377 21.85ZM112.427 15.125C111.577 15.125 110.86 15.65 110.277 16.7C109.693 17.75 109.31 19.025 109.127 20.525H109.502C110.952 20.525 112.018 20.15 112.702 19.4C113.402 18.65 113.752 17.75 113.752 16.7C113.752 16.2667 113.635 15.9 113.402 15.6C113.185 15.2833 112.86 15.125 112.427 15.125ZM122.691 22.95C122.691 24.9333 123.291 25.925 124.491 25.925C125.124 25.925 125.741 25.5833 126.341 24.9C126.941 24.2167 127.424 23.3 127.791 22.15C128.174 21 128.499 19.775 128.766 18.475C129.049 17.1583 129.257 15.7667 129.391 14.3C129.624 11.4667 129.741 9.25833 129.741 7.675C129.741 6.075 129.674 4.875 129.541 4.075C130.741 4.34167 131.582 4.90833 132.066 5.775C132.549 6.64167 132.791 7.73333 132.791 9.05C132.791 10.3667 132.507 12.8167 131.941 16.4C131.391 19.9833 131.116 22.6 131.116 24.25C131.116 25.9 131.191 27.3 131.341 28.45C130.157 28.1333 129.341 27.5667 128.891 26.75C128.457 25.9167 128.241 24.875 128.241 23.625C127.724 25.0583 126.949 26.1917 125.916 27.025C124.882 27.8583 123.816 28.275 122.716 28.275C121.616 28.275 120.716 27.8583 120.016 27.025C119.332 26.175 118.991 24.9333 118.991 23.3C118.991 20.7167 119.699 18.5 121.116 16.65C122.532 14.7833 124.207 13.85 126.141 13.85C126.691 13.85 127.557 13.9833 128.741 14.25C127.707 14.5167 126.782 14.9833 125.966 15.65C125.166 16.3 124.541 17.05 124.091 17.9C123.157 19.5833 122.691 21.2667 122.691 22.95ZM150.123 9.55C149.373 9.55 148.748 9.78333 148.248 10.25C147.748 10.7 147.498 11.3417 147.498 12.175C147.498 13.0083 147.706 13.7583 148.123 14.425C148.556 15.075 149.081 15.6333 149.698 16.1C150.331 16.55 151.015 17.0417 151.748 17.575C152.498 18.1083 153.181 18.6167 153.798 19.1C154.431 19.5667 154.956 20.15 155.373 20.85C155.806 21.55 156.023 22.2917 156.023 23.075C156.023 24.625 155.39 25.9417 154.123 27.025C152.856 28.0917 151.19 28.625 149.123 28.625C147.073 28.625 145.448 28.1833 144.248 27.3C143.048 26.4167 142.448 25.4167 142.448 24.3C142.448 23.1833 142.781 22.3167 143.448 21.7C144.115 21.0667 144.973 20.75 146.023 20.75C146.323 20.75 146.606 20.7833 146.873 20.85C146.356 21.6167 146.098 22.45 146.098 23.35C146.098 24.2333 146.373 25 146.923 25.65C147.473 26.2833 148.198 26.6 149.098 26.6C150.015 26.6 150.781 26.3667 151.398 25.9C152.015 25.4167 152.323 24.8083 152.323 24.075C152.323 23.325 152.115 22.6667 151.698 22.1C151.281 21.5333 150.765 21.05 150.148 20.65C149.531 20.2333 148.856 19.7667 148.123 19.25C147.39 18.7167 146.715 18.1833 146.098 17.65C145.481 17.1167 144.965 16.4417 144.548 15.625C144.131 14.7917 143.923 13.8833 143.923 12.9C143.923 11.3167 144.498 10.0583 145.648 9.125C146.798 8.175 148.348 7.7 150.298 7.7C152.248 7.7 153.723 8.14167 154.723 9.025C155.74 9.89167 156.248 10.825 156.248 11.825C156.248 12.8083 155.931 13.6417 155.298 14.325C154.665 14.9917 153.806 15.325 152.723 15.325C152.356 15.325 151.998 15.2917 151.648 15.225C152.465 14.3583 152.873 13.45 152.873 12.5C152.873 11.5333 152.606 10.8 152.073 10.3C151.54 9.8 150.89 9.55 150.123 9.55ZM162.546 20.275C163.146 16.8583 164.371 14.7167 166.221 13.85C166.687 13.6333 167.146 13.525 167.596 13.525C168.479 13.525 169.229 13.85 169.846 14.5C170.462 15.15 170.771 15.9833 170.771 17C170.771 18.0167 170.479 18.8917 169.896 19.625C169.329 20.3417 168.529 20.9 167.496 21.3L167.796 22.225C168.346 23.9417 169.146 25.6417 170.196 27.325C171.246 29.0083 172.096 30.1583 172.746 30.775C172.146 30.925 171.612 31 171.146 31C169.462 31 167.987 29.775 166.721 27.325C166.221 26.3583 165.487 24.55 164.521 21.9C164.304 21.9167 163.987 21.925 163.571 21.925C163.471 21.8417 163.421 21.575 163.421 21.125C164.187 21.1083 164.871 20.975 165.471 20.725C166.071 20.475 166.537 20.15 166.871 19.75C167.504 18.9333 167.821 18.075 167.821 17.175C167.821 16.725 167.721 16.3583 167.521 16.075C167.337 15.775 167.071 15.625 166.721 15.625C166.104 15.625 165.471 16.0667 164.821 16.95C164.187 17.8333 163.646 19.0667 163.196 20.65C162.762 22.2167 162.546 23.6917 162.546 25.075C162.546 26.4417 162.596 27.4167 162.696 28C162.162 28.0333 161.812 28.05 161.646 28.05C160.696 28.05 160.012 27.8917 159.596 27.575C159.179 27.2417 158.971 26.7167 158.971 26C158.971 25.2833 159.121 23.9167 159.421 21.9C160.304 15.7 160.746 10.9917 160.746 7.775C160.746 6.325 160.646 5.35 160.446 4.85C161.696 5.18333 162.546 5.69167 162.996 6.375C163.462 7.04167 163.696 7.99167 163.696 9.225C163.696 10.0583 163.529 11.8083 163.196 14.475C162.879 17.1417 162.662 19.075 162.546 20.275ZM178.251 15.575C178.251 15.825 178.043 17.1417 177.626 19.525C177.226 21.8917 177.018 23.85 177.001 25.4C177.001 26.9333 177.101 27.925 177.301 28.375C176.001 28.0417 175.126 27.5417 174.676 26.875C174.226 26.1917 174.001 25.2 174.001 23.9C174.001 23.2 174.135 21.9333 174.401 20.1C174.668 18.2667 174.801 16.8417 174.801 15.825C174.801 14.8083 174.751 14.025 174.651 13.475C175.018 13.4417 175.36 13.425 175.676 13.425C176.643 13.425 177.31 13.5917 177.676 13.925C178.06 14.2417 178.251 14.7917 178.251 15.575ZM178.626 11.225C178.16 11.2917 177.751 11.325 177.401 11.325C175.685 11.325 174.826 10.725 174.826 9.525C174.826 9.09167 174.951 8.5 175.201 7.75C175.668 7.68333 176.076 7.65 176.426 7.65C178.143 7.65 179.001 8.25 179.001 9.45C179.001 9.88333 178.876 10.475 178.626 11.225ZM187.133 21.85C186.333 21.85 185.55 21.7583 184.783 21.575C184.767 21.7417 184.758 22 184.758 22.35C184.758 23.7333 185.017 24.775 185.533 25.475C186.05 26.175 186.667 26.525 187.383 26.525C188.1 26.525 188.783 26.3083 189.433 25.875C190.083 25.4417 190.65 24.8417 191.133 24.075C191.733 24.2083 192.033 24.5167 192.033 25C190.567 27.25 188.675 28.375 186.358 28.375C184.958 28.375 183.733 27.8417 182.683 26.775C181.633 25.6917 181.108 24.1917 181.108 22.275C181.108 20.8417 181.383 19.4833 181.933 18.2C182.483 16.9 183.358 15.8083 184.558 14.925C185.758 14.025 187.083 13.575 188.533 13.575C190 13.575 191.075 13.9083 191.758 14.575C192.442 15.2417 192.783 16.1167 192.783 17.2C192.783 18.7667 192.233 19.9333 191.133 20.7C190.05 21.4667 188.717 21.85 187.133 21.85ZM188.183 15.125C187.333 15.125 186.617 15.65 186.033 16.7C185.45 17.75 185.067 19.025 184.883 20.525H185.258C186.708 20.525 187.775 20.15 188.458 19.4C189.158 18.65 189.508 17.75 189.508 16.7C189.508 16.2667 189.392 15.9 189.158 15.6C188.942 15.2833 188.617 15.125 188.183 15.125ZM200.948 15.05C200.481 15.05 200.064 15.2083 199.698 15.525C199.331 15.825 199.148 16.2583 199.148 16.825C199.148 17.3917 199.339 17.925 199.723 18.425C200.123 18.925 200.606 19.3667 201.173 19.75C201.739 20.1167 202.306 20.5 202.873 20.9C203.456 21.2833 203.964 21.7667 204.398 22.35C204.831 22.9167 205.073 23.55 205.123 24.25C205.123 25.45 204.606 26.4583 203.573 27.275C202.539 28.0917 201.256 28.5 199.723 28.5C198.189 28.5 196.981 28.1917 196.098 27.575C195.231 26.9583 194.798 26.25 194.798 25.45C194.798 24.65 195.039 24.0083 195.523 23.525C196.023 23.025 196.639 22.775 197.373 22.775C197.756 22.775 198.114 22.8417 198.448 22.975C197.914 23.5417 197.648 24.1417 197.648 24.775C197.648 25.4083 197.823 25.9167 198.173 26.3C198.523 26.6833 198.998 26.875 199.598 26.875C200.198 26.875 200.698 26.725 201.098 26.425C201.514 26.1083 201.723 25.7083 201.723 25.225C201.723 24.725 201.581 24.2833 201.298 23.9C201.014 23.5167 200.656 23.1833 200.223 22.9C199.806 22.6 199.348 22.2667 198.848 21.9C198.348 21.5333 197.881 21.1667 197.448 20.8C197.031 20.4167 196.681 19.9417 196.398 19.375C196.114 18.7917 195.973 18.1583 195.973 17.475C195.973 16.2917 196.456 15.325 197.423 14.575C198.406 13.8083 199.623 13.425 201.073 13.425C202.539 13.425 203.606 13.7083 204.273 14.275C204.956 14.8417 205.298 15.5083 205.298 16.275C205.298 17.025 205.056 17.6667 204.573 18.2C204.106 18.7333 203.498 19 202.748 19C202.381 19 201.964 18.925 201.498 18.775C201.864 18.4583 202.148 18.1 202.348 17.7C202.548 17.2833 202.648 16.875 202.648 16.475C202.648 16.075 202.481 15.7417 202.148 15.475C201.814 15.1917 201.414 15.05 200.948 15.05Z" fill="#00203D"/>
<rect x="40" y="8" width="18" height="5" fill="white"/>
<path d="M57.8081 7.63713C57.6002 7.23747 57.2319 6.93489 56.7842 6.79596C56.3366 6.65702 55.8461 6.69311 55.4209 6.89629L50.7259 9.14293L41.4938 7.27451L39.4436 8.62474L46.6255 11.8434L42.5251 14.5439L37.8354 13.0904L36.8839 14.2848L41.8683 17.8152L57.0484 9.88273C57.4556 9.66973 57.7623 9.31675 57.904 8.89798C58.0457 8.47921 58.0113 8.02726 57.8081 7.63713Z" fill="#00203D"/>
</svg>
