<svg xmlns="http://www.w3.org/2000/svg" width="24" height="24">
  <g fill="none" fill-rule="evenodd">
    <path d="M0 0h24v24H0z"/>
    <path d="M0 0h24v24H0z"/>
    <path fill="#fff" fill-rule="nonzero" d="M18.904 15.214a2.113 2.113 0 0 0-1.527-.624c-.598 0-1.185.228-1.624.66a3.566 3.566 0 0 0-.917 1.428c-.72-.072-3.08-1.569-4.533-3.033C8.898 12.216 7.407 9.843 7.32 9.11a3.547 3.547 0 0 0 1.49-.852c.44-.42.697-.96.721-1.549a2.058 2.058 0 0 0-.586-1.548L7.382 3.576A1.927 1.927 0 0 0 5.99 3a2.14 2.14 0 0 0-1.478.6l-.244.24c-.33.3-.586.66-.758 1.057-.024.06-.708 1.56-.452 2.689.05.168 1.42 4.5 5.181 8.063 3.762 3.564 7.844 5.219 8.028 5.279.195.048.415.072.647.072.99 0 2.04-.42 2.077-.432a3.711 3.711 0 0 0 1.112-.708l.244-.24c.818-.78.88-2.053.122-2.822l-1.564-1.584z"/>
  </g>
</svg>